# xmcd
#
# Track frame offsets:
#	150
#	14335
#	29870
#	44930
#	56300
#	71000
#	86062
#	95427
#	110185
#	124947
#	139465
#	153510
#	165020
#	179882
#	192250
#	203952
#	216247
#	229962
#	239860
#	251870
#	265760
#	277660
#	291292
#	303660
#	317557
#
# Disc length: 4432 seconds
#
# Revision: 3
# Processed by: cddbd v1.5.2PL0 Copyright (c) Steve Scherf et al.
# Submitted via: EasyCDDAExtractor 2010.6.0.0
#
DISCID=91114e19
DTITLE=Various Artist - Café de Paris
DYEAR=2000
DGENRE=Francais
TTITLE0=Charles Trenet - Douce France
TTITLE1=Edith Piaf - Hymne a L'amour
TTITLE2=Yves Montand - Les Feuilles Mortes
TTITLE3=Jean Sablon - Sur le Pont D'Avignon
TTITLE4=Josephine Baker - De Temps en Temps
TTITLE5=Charles Trenet - La Mer
TTITLE6=Fernandel - Ignace
TTITLE7=Frehel - Ou sont mes amants
TTITLE8=Lys Gaudy - Loin de toi
TTITLE9=Jean Sablon - La Chanson des Rues
TTITLE10=Tino Rossi - Marinella
TTITLE11=Maurice Chevalier - Fleur de Paris
TTITLE12=Edith Piaf - C'est un Gars
TTITLE13=Yves Montard - Mais Ou'est-ce que j'ai
TTITLE14=Mirelle - Le Temps d'une Hirondel
TTITLE15=Tino Rossi - Tchi-Tchi
TTITLE16=Damia - La Guingette a ferme ses volets
TTITLE17=Charles Trenet - Le Grand Cafe
TTITLE18=Josephine Baker - Si j'etais blanche
TTITLE19=Mistinguette - Je cherche un millionaire
TTITLE20=Fernandel - Felicie Aussi
TTITLE21=Maurice Chevalier - Mon Vieux Paris
TTITLE22=Red Claire - Si tu Reviens
TTITLE23=Edith Piaf - C'est Merveilleux
TTITLE24=Georges Thill - La Marseillaise
EXTD=
EXTT0=
EXTT1=
EXTT2=
EXTT3=
EXTT4=
EXTT5=
EXTT6=
EXTT7=
EXTT8=
EXTT9=
EXTT10=
EXTT11=
EXTT12=
EXTT13=
EXTT14=
EXTT15=
EXTT16=
EXTT17=
EXTT18=
EXTT19=
EXTT20=
EXTT21=
EXTT22=
EXTT23=
EXTT24=
PLAYORDER=
